<?xml version="1.0" encoding="utf-8"?>
<!-- Generator: Adobe Illustrator 24.0.0, SVG Export Plug-In . SVG Version: 6.00 Build 0)  -->
<svg version="1.1" id="Layer_1" xmlns="http://www.w3.org/2000/svg" xmlns:xlink="http://www.w3.org/1999/xlink" x="0px" y="0px"
	 viewBox="0 0 286.2 84.2" style="enable-background:new 0 0 286.2 84.2;" xml:space="preserve">
<style type="text/css">
	.Arched_x0020_Green{fill:url(#SVGID_1_);stroke:#FFFFFF;stroke-width:0.25;stroke-miterlimit:1;}
	.st0{fill:#F6A71D;}
	.st1{fill:#231F20;}
	.st2{fill:none;}
	.st3{fill:#FFFFFF;}
</style>
<linearGradient id="SVGID_1_" gradientUnits="userSpaceOnUse" x1="-130.7534" y1="579.0835" x2="-130.0463" y2="578.3764">
	<stop  offset="0" style="stop-color:#20AC4B"/>
	<stop  offset="0.9831" style="stop-color:#19361A"/>
</linearGradient>
<polygon class="st0" points="41,82.2 0,41.2 41.2,0 82.5,41.3 "/>
<path class="st1" d="M85.3,62V47.2h7.3c0.1,2.7,0.8,4.7,2.1,6c1.3,1.3,2.8,1.9,4.5,1.9c1.3,0,2.4-0.5,3.4-1.4c0.9-0.9,1.4-2,1.4-3.3
	c0-1.3-0.4-2.4-1.3-3.3c-0.9-0.9-2.5-1.9-4.9-3.1c-5-2.4-8.4-4.5-10.2-6.4c-1.8-1.8-2.7-4.3-2.7-7.5c0-3.8,1.2-6.7,3.5-8.8
	c2.4-2.1,5.1-3.1,8.1-3.1c3.4,0,6.1,1.3,8,4v-3.6h7.3v13.2h-7.3c-0.2-2-0.9-3.6-2.1-4.7c-1.2-1.1-2.5-1.7-4.1-1.7
	c-1.2,0-2.2,0.3-3,1C94.4,27.1,94,27.9,94,29c0,0.9,0.3,1.7,1,2.5c0.7,0.8,2.7,1.9,6,3.4c3.2,1.4,5.6,2.7,7.4,3.9
	c1.7,1.2,3.1,2.6,4.1,4.5c1,1.8,1.5,4,1.5,6.4c0,4.3-1.2,7.5-3.7,9.7c-2.5,2.2-5.4,3.2-8.8,3.2c-3.8,0-6.7-1.4-8.8-4.2V62"/>
<path class="st1" d="M116.2,62v-7.3h6.6V26h-6.6v-7.3h20.5c4.3,0,7.8,0.3,10.4,0.8c2.6,0.5,5.2,1.7,7.6,3.5c2.4,1.8,4.3,4.3,5.8,7.3
	c1.5,3,2.2,6.4,2.2,10.1c0,3-0.5,5.9-1.5,8.6c-1,2.7-2.3,4.9-3.8,6.6c-1.5,1.7-3.3,3-5.4,4c-2.1,1-4,1.6-5.8,1.9
	c-1.8,0.3-4.5,0.4-8.1,0.4 M134,54.7h2.7c3.3,0,5.9-0.4,7.8-1.3c1.9-0.8,3.5-2.3,4.6-4.5c1.2-2.1,1.7-5,1.7-8.4
	c0-3.3-0.6-6.1-1.8-8.4c-1.2-2.3-2.8-3.9-4.8-4.8c-2-0.9-4.6-1.3-7.6-1.3H134V54.7z"/>
<path class="st1" d="M164.6,62V47.2h7.3c0.1,2.7,0.8,4.7,2.1,6c1.3,1.3,2.8,1.9,4.5,1.9c1.3,0,2.4-0.5,3.4-1.4
	c0.9-0.9,1.4-2,1.4-3.3c0-1.3-0.4-2.4-1.3-3.3c-0.9-0.9-2.5-1.9-4.9-3.1c-5-2.4-8.4-4.5-10.2-6.4c-1.8-1.8-2.7-4.3-2.7-7.5
	c0-3.8,1.2-6.7,3.5-8.8c2.4-2.1,5.1-3.1,8.1-3.1c3.4,0,6.1,1.3,8,4v-3.6h7.3v13.2h-7.3c-0.2-2-0.9-3.6-2.1-4.7
	c-1.2-1.1-2.5-1.7-4.1-1.7c-1.2,0-2.2,0.3-3,1c-0.8,0.6-1.2,1.5-1.2,2.5c0,0.9,0.3,1.7,1,2.5c0.7,0.8,2.7,1.9,6,3.4
	c3.2,1.4,5.7,2.7,7.4,3.9c1.7,1.2,3.1,2.6,4.1,4.5c1,1.8,1.5,4,1.5,6.4c0,4.3-1.2,7.5-3.7,9.7c-2.5,2.2-5.4,3.2-8.8,3.2
	c-3.8,0-6.7-1.4-8.8-4.2V62"/>
<path class="st0" d="M260.9,62h-32.2l-9.8-19h-5v11.7h5.4V62h-22.6v-7.3h5.9V26h-5.9v-7.3h27c8.4,0,13,5.5,13,12.1
	c0,5-2.4,8.5-7.5,10.8l7,13.1h24.6V62z M218.5,36c5,0,6.5-2.8,6.5-5.1c0-1.8-1.1-4.9-5.3-4.9H214v10H218.5z"/>
<g>
	<path class="st0" d="M238.7,73.4h6.3l10.6-14.9l-10.5-13.7h-5.9v-7.3h22.3v6.9h-4.1l6.4,8.1l5.9-8.1h-4v-6.9h19.3v7.3h-6.1
		l-10.3,14.2l11.1,14.5h6.5v7.3H263v-6.9h4.4l-6.7-9l-6.5,9h4.4v6.9h-19.9V73.4z"/>
</g>
<path class="st0" d="M9.5,40.6"/>
<g>
	<g>
		<path d="M8.9,40.6"/>
		<path d="M76.4,63.6"/>
	</g>
</g>
<g>
	<polygon class="st2" points="41.4,79.7 2.4,41.1 41.6,2.4 80.6,41 	"/>
	<polyline class="st2" points="41.3,2.3 51.2,12 31.5,12 	"/>
	<polyline class="st2" points="41.3,21.7 51.2,12 31.5,12 	"/>
	<polyline class="st2" points="51.2,12 61,21.7 41.3,21.7 	"/>
	<polyline class="st2" points="31.5,12 41.3,21.7 21.7,21.7 	"/>
	<polyline class="st2" points="41.3,21.7 51.2,31.4 31.5,31.4 	"/>
	<polyline class="st2" points="41.3,79.9 51.2,70.2 31.5,70.2 	"/>
	<polyline class="st2" points="41.3,60.5 51.2,70.2 31.5,70.2 	"/>
	<polyline class="st2" points="51.2,70.2 61,60.5 41.3,60.5 	"/>
	<polyline class="st2" points="31.5,70.2 41.3,60.5 21.7,60.5 	"/>
	<polyline class="st2" points="41.3,60.5 51.2,50.8 31.5,50.8 	"/>
	<polyline class="st2" points="2,41.1 11.8,31.4 11.8,50.8 	"/>
	<polyline class="st2" points="21.7,41.1 11.8,31.4 11.8,50.8 	"/>
	<polyline class="st2" points="11.8,31.4 21.7,21.7 21.7,41.1 	"/>
	<polyline class="st2" points="11.8,50.8 21.7,41.1 21.7,60.5 	"/>
	<polyline class="st2" points="21.7,41.1 31.5,31.4 31.5,50.8 	"/>
	<polyline class="st2" points="80.6,41.1 70.8,50.8 70.8,31.4 	"/>
	<polyline class="st2" points="61,41.1 70.8,50.8 70.8,31.4 	"/>
	<polyline class="st2" points="70.8,50.8 61,60.5 61,41.1 	"/>
	<polyline class="st2" points="70.8,31.4 61,41.1 61,21.7 	"/>
	<polyline class="st2" points="61,41.1 51.1,50.8 51.1,31.4 	"/>
	<rect x="31.5" y="31.4" class="st2" width="19.7" height="19.4"/>
</g>
<g>
	<polygon class="st0" points="41.4,79.7 2.4,41.1 41.6,2.4 80.6,41 	"/>
	<polyline points="41.3,2.3 51.2,12 31.5,12 	"/>
	<polyline class="st3" points="41.3,21.7 51.2,12 31.5,12 	"/>
	<polyline points="51.2,12 61,21.7 41.3,21.7 	"/>
	<polyline points="31.5,12 41.3,21.7 21.7,21.7 	"/>
	<polyline points="41.3,21.7 51.2,31.4 31.5,31.4 	"/>
	<polyline points="41.3,79.9 51.2,70.2 31.5,70.2 	"/>
	<polyline class="st3" points="41.3,60.5 51.2,70.2 31.5,70.2 	"/>
	<polyline points="51.2,70.2 61,60.5 41.3,60.5 	"/>
	<polyline points="31.5,70.2 41.3,60.5 21.7,60.5 	"/>
	<polyline points="41.3,60.5 51.2,50.8 31.5,50.8 	"/>
	<polyline points="2,41.1 11.8,31.4 11.8,50.8 	"/>
	<polyline class="st3" points="21.7,41.1 11.8,31.4 11.8,50.8 	"/>
	<polyline points="11.8,31.4 21.7,21.7 21.7,41.1 	"/>
	<polyline points="11.8,50.8 21.7,41.1 21.7,60.5 	"/>
	<polyline points="21.7,41.1 31.5,31.4 31.5,50.8 	"/>
	<polyline points="80.6,41.1 70.8,50.8 70.8,31.4 	"/>
	<polyline class="st3" points="61,41.1 70.8,50.8 70.8,31.4 	"/>
	<polyline points="70.8,50.8 61,60.5 61,41.1 	"/>
	<polyline points="70.8,31.4 61,41.1 61,21.7 	"/>
	<polyline points="61,41.1 51.1,50.8 51.1,31.4 	"/>
	<rect x="31.5" y="31.4" class="st3" width="19.7" height="19.4"/>
</g>
<polyline class="st0" points="81.1,77.5 71.8,70.9 71.8,84.2 "/>
<g>
	<path class="st1" d="M85.3,79.6h0.6v-5.2h-0.6V76h-1.1v-2.8h5.3V76h-1.1v-1.6h-0.6v5.2h0.6v1.1h-3V79.6z"/>
	<path class="st1" d="M89.8,79.6h0.6v-5.2h-0.6v-1.1H92v2.6c0.4-0.4,0.7-0.5,1.1-0.5c0.9,0,1.4,0.6,1.4,1.8v2.5H95v1.1h-2.1v-3.5
		c0-0.5-0.1-0.7-0.4-0.7c-0.2,0-0.3,0.1-0.5,0.2v2.8h0.5v1.1h-2.6V79.6z"/>
	<path class="st1" d="M99.4,79.6c-0.3,0.8-1,1.3-1.9,1.3c-1.3,0-2-1-2-2.8c0-2.2,1.1-2.7,2-2.7c0.8,0,1.9,0.5,1.9,2.5v0.5h-2.4
		c0,1.2,0.1,1.4,0.5,1.4c0.3,0,0.4-0.2,0.5-0.7L99.4,79.6z M97.9,77.6v-0.3c0-0.6-0.1-0.9-0.4-0.9s-0.4,0.3-0.4,1.2H97.9z"/>
	<path class="st1" d="M103.1,79.6h0.6v-5.2h-0.6v-1.1h2.6v1.1h-0.3v1.9h1.1v-1.9h-0.3v-1.1h2.7v1.1h-0.6v5.2h0.6v1.1h-2.7v-1.1h0.3
		v-2.3h-1.1v2.3h0.3v1.1h-2.6V79.6z"/>
	<path class="st1" d="M113.4,79.6c-0.3,0.8-1,1.3-1.9,1.3c-1.3,0-2-1-2-2.8c0-2.2,1.1-2.7,2-2.7c0.8,0,1.9,0.5,1.9,2.5v0.5h-2.4
		c0,1.2,0.1,1.4,0.5,1.4c0.3,0,0.4-0.2,0.5-0.7L113.4,79.6z M111.9,77.6v-0.3c0-0.6-0.1-0.9-0.4-0.9c-0.3,0-0.4,0.3-0.4,1.2H111.9z"
		/>
	<path class="st1" d="M116.7,80.8v-0.4c-0.3,0.3-0.7,0.5-1.1,0.5c-0.8,0-1.4-0.7-1.4-1.7c0-1,0.7-1.7,1.6-1.7c0.3,0,0.6,0.1,0.9,0.3
		v-0.6c0-0.6-0.1-0.8-0.5-0.8c-0.3,0-0.4,0.1-0.5,0.4l-1.4-0.3c0.4-0.7,1.1-1.1,2.1-1.1c0.9,0,1.9,0.3,1.9,1.6v2.7h0.5v1.1H116.7z
		 M116.7,78.6c-0.1-0.2-0.3-0.2-0.4-0.2c-0.3,0-0.5,0.3-0.5,0.7c0,0.4,0.2,0.6,0.5,0.6c0.2,0,0.3-0.1,0.5-0.3V78.6z"/>
	<path class="st1" d="M119.1,79.6h0.6v-5.2h-0.6v-1.1h2.1v6.4h0.5v1.1h-2.7V79.6z"/>
	<path class="st1" d="M124.9,80.7c-0.3,0.1-0.6,0.2-0.9,0.2c-0.9,0-1.2-0.6-1.2-1.5v-2.8h-0.5v-1.1h0.5v-0.7l1.6-1.2v1.9h0.6v1.1
		h-0.6V79c0,0.5,0.1,0.6,0.4,0.6c0.1,0,0.2,0,0.2-0.1V80.7z"/>
	<path class="st1" d="M125.4,79.6h0.6v-5.2h-0.6v-1.1h2.1v2.6c0.4-0.4,0.7-0.5,1.1-0.5c0.9,0,1.4,0.6,1.4,1.8v2.5h0.5v1.1h-2.1v-3.5
		c0-0.5-0.1-0.7-0.4-0.7c-0.2,0-0.3,0.1-0.5,0.2v2.8h0.5v1.1h-2.6V79.6z"/>
	<path class="st1" d="M135.1,79.1c-0.2,1.2-0.8,1.8-1.9,1.8c-1.3,0-2.1-1.1-2.1-2.8c0-1.6,0.7-2.6,1.7-2.6c0.5,0,0.8,0.2,1,0.7h0
		v-0.6h1.1v2.1h-1.1c-0.1-0.8-0.2-1.1-0.6-1.1c-0.4,0-0.5,0.4-0.5,1.6c0,1.3,0.1,1.7,0.6,1.7c0.3,0,0.5-0.3,0.5-1.1L135.1,79.1z"/>
	<path class="st1" d="M138.4,80.8v-0.4c-0.3,0.3-0.7,0.5-1.1,0.5c-0.8,0-1.4-0.7-1.4-1.7c0-1,0.7-1.7,1.6-1.7c0.3,0,0.6,0.1,0.9,0.3
		v-0.6c0-0.6-0.1-0.8-0.5-0.8c-0.3,0-0.4,0.1-0.5,0.4l-1.4-0.3c0.4-0.7,1.1-1.1,2.1-1.1c0.9,0,1.9,0.3,1.9,1.6v2.7h0.5v1.1H138.4z
		 M138.4,78.6c-0.1-0.2-0.3-0.2-0.4-0.2c-0.3,0-0.5,0.3-0.5,0.7c0,0.4,0.2,0.6,0.5,0.6c0.2,0,0.3-0.1,0.5-0.3V78.6z"/>
	<path class="st1" d="M140.9,79.6h0.6v-3h-0.6v-1.1h2.1v1h0c0.2-0.9,0.6-1.2,1.2-1.1v1.7c-0.8,0-1.2,0.5-1.2,1.5v0.9h0.6v1.1h-2.7
		V79.6z"/>
	<path class="st1" d="M148.7,79.6c-0.3,0.8-1,1.3-1.9,1.3c-1.3,0-2-1-2-2.8c0-2.2,1.1-2.7,2-2.7c0.8,0,1.9,0.5,1.9,2.5v0.5h-2.4
		c0,1.2,0.1,1.4,0.5,1.4c0.3,0,0.4-0.2,0.5-0.7L148.7,79.6z M147.3,77.6v-0.3c0-0.6-0.1-0.9-0.4-0.9c-0.3,0-0.4,0.3-0.4,1.2H147.3z"
		/>
	<path class="st1" d="M152.9,79.6h0.5v-5.2h-0.5v-1.1h2.6c1.5,0,2.6,1.4,2.6,3.8c0,2.1-0.8,3.7-2.6,3.7h-2.6V79.6z M155.2,79.6
		c0.7,0,1-0.4,1-2.7c0-2.4-0.4-2.6-1-2.6V79.6z"/>
	<path class="st1" d="M162.7,79.6c-0.3,0.8-1,1.3-1.9,1.3c-1.3,0-2-1-2-2.8c0-2.2,1.1-2.7,2-2.7c0.8,0,1.9,0.5,1.9,2.5v0.5h-2.4
		c0,1.2,0.1,1.4,0.5,1.4c0.3,0,0.4-0.2,0.5-0.7L162.7,79.6z M161.2,77.6v-0.3c0-0.6-0.1-0.9-0.4-0.9s-0.4,0.3-0.4,1.2H161.2z"/>
	<path class="st1" d="M163.2,79.6h0.6v-5.2h-0.6v-1.1h2.1v6.4h0.5v1.1h-2.7V79.6z"/>
	<path class="st1" d="M166.4,79.6h0.6v-3h-0.6v-1.1h2.1v4.1h0.5v1.1h-2.6V79.6z M166.9,74.1c0-0.5,0.4-0.9,0.9-0.9
		c0.5,0,0.9,0.4,0.9,0.9c0,0.5-0.4,0.9-0.9,0.9C167.3,75,166.9,74.6,166.9,74.1z"/>
	<path class="st1" d="M169.8,76.7h-0.4v-1.1h2.1v1.1h-0.3l0.6,2.4h0l0.5-2.4H172v-1.1h1.9v1.1h-0.4l-1.1,4.2h-1.3L169.8,76.7z"/>
	<path class="st1" d="M178.1,79.6c-0.3,0.8-1,1.3-1.9,1.3c-1.3,0-2-1-2-2.8c0-2.2,1.1-2.7,2-2.7c0.8,0,1.9,0.5,1.9,2.5v0.5h-2.4
		c0,1.2,0.1,1.4,0.5,1.4c0.3,0,0.4-0.2,0.5-0.7L178.1,79.6z M176.6,77.6v-0.3c0-0.6-0.1-0.9-0.4-0.9c-0.3,0-0.4,0.3-0.4,1.2H176.6z"
		/>
	<path class="st1" d="M178.7,79.6h0.6v-3h-0.6v-1.1h2.1v1h0c0.2-0.9,0.6-1.2,1.2-1.1v1.7c-0.8,0-1.2,0.5-1.2,1.5v0.9h0.6v1.1h-2.7
		V79.6z"/>
	<path class="st1" d="M183.7,82h0.7l0.2-1l-1.5-4.4h-0.4v-1.1h2.1v1.1h-0.4l0.7,2h0l0.5-2h-0.3v-1.1h1.9v1.1h-0.4l-1.6,6.5h-1.5V82z
		"/>
	<path class="st1" d="M191.3,78.3h1.1c0,0.9,0.2,1.4,0.7,1.4c0.4,0,0.6-0.3,0.6-0.7c0-1.3-2.4-1.9-2.4-3.9c0-1,0.6-1.8,1.5-1.8
		c0.6,0,0.8,0.2,1.2,0.5v-0.5h1.1v2.3H194c0-0.9-0.2-1.2-0.6-1.2c-0.3,0-0.5,0.2-0.5,0.6c0,0.3,0.1,0.6,0.4,0.8
		c0.3,0.3,0.6,0.5,1,0.9c0.7,0.7,1,1.4,1,2.2c0,1.2-0.7,2-1.7,2c-0.5,0-0.8-0.2-1.2-0.5v0.5h-1.1V78.3z"/>
	<path class="st1" d="M195.8,82h0.5v-5.4h-0.5v-1.1h2.1v0.6h0c0.2-0.5,0.6-0.7,0.9-0.7c1,0,1.5,0.9,1.5,2.7c0,1.8-0.5,2.7-1.5,2.7
		c-0.4,0-0.7-0.1-1-0.5V82h0.7v1.1h-2.8V82z M198.3,79.7c0.4,0,0.4-0.3,0.4-1.6c0-1.1-0.1-1.4-0.4-1.4c-0.3,0-0.4,0.3-0.4,0.9v1.1
		C197.9,79.5,198,79.7,198.3,79.7z"/>
	<path class="st1" d="M204.9,79.6c-0.3,0.8-1,1.3-1.9,1.3c-1.3,0-2-1-2-2.8c0-2.2,1.1-2.7,2-2.7c0.8,0,1.9,0.5,1.9,2.5v0.5h-2.4
		c0,1.2,0.1,1.4,0.5,1.4c0.3,0,0.4-0.2,0.5-0.7L204.9,79.6z M203.4,77.6v-0.3c0-0.6-0.1-0.9-0.4-0.9c-0.3,0-0.4,0.3-0.4,1.2H203.4z"
		/>
	<path class="st1" d="M209.6,79.1c-0.2,1.2-0.8,1.8-1.9,1.8c-1.3,0-2.1-1.1-2.1-2.8c0-1.6,0.7-2.6,1.7-2.6c0.5,0,0.8,0.2,1,0.7h0
		v-0.6h1.1v2.1h-1.1c-0.1-0.8-0.2-1.1-0.6-1.1c-0.4,0-0.5,0.4-0.5,1.6c0,1.3,0.1,1.7,0.6,1.7c0.3,0,0.5-0.3,0.5-1.1L209.6,79.1z"/>
	<path class="st1" d="M210.3,79.6h0.6v-3h-0.6v-1.1h2.1v4.1h0.5v1.1h-2.6V79.6z M210.7,74.1c0-0.5,0.4-0.9,0.9-0.9
		c0.5,0,0.9,0.4,0.9,0.9c0,0.5-0.4,0.9-0.9,0.9C211.1,75,210.7,74.6,210.7,74.1z"/>
	<path class="st1" d="M216.1,80.8v-0.4c-0.3,0.3-0.7,0.5-1.1,0.5c-0.8,0-1.4-0.7-1.4-1.7c0-1,0.7-1.7,1.6-1.7c0.3,0,0.6,0.1,0.9,0.3
		v-0.6c0-0.6-0.1-0.8-0.5-0.8c-0.3,0-0.4,0.1-0.5,0.4l-1.4-0.3c0.4-0.7,1.1-1.1,2.1-1.1c0.9,0,1.9,0.3,1.9,1.6v2.7h0.5v1.1H216.1z
		 M216.1,78.6c-0.1-0.2-0.3-0.2-0.4-0.2c-0.3,0-0.5,0.3-0.5,0.7c0,0.4,0.2,0.6,0.5,0.6c0.2,0,0.3-0.1,0.5-0.3V78.6z"/>
	<path class="st1" d="M218.5,79.6h0.6v-5.2h-0.6v-1.1h2.1v6.4h0.5v1.1h-2.7V79.6z"/>
	<path class="st1" d="M221.7,79.6h0.6v-3h-0.6v-1.1h2.1v4.1h0.5v1.1h-2.6V79.6z M222.2,74.1c0-0.5,0.4-0.9,0.9-0.9
		c0.5,0,0.9,0.4,0.9,0.9c0,0.5-0.4,0.9-0.9,0.9C222.6,75,222.2,74.6,222.2,74.1z"/>
	<path class="st1" d="M225,79.3h1.1c0,0.4,0.2,0.6,0.4,0.6c0.2,0,0.3-0.1,0.3-0.4c0-0.7-2-1-2-2.6c0-0.9,0.5-1.5,1.2-1.5
		c0.4,0,0.7,0.3,0.8,0.4h0v-0.3h1.1v1.4H227c-0.1-0.4-0.2-0.5-0.4-0.5c-0.2,0-0.4,0.1-0.4,0.4c0,0.8,2,0.9,2,2.7
		c0,0.9-0.5,1.5-1.2,1.5c-0.6,0-0.7-0.2-0.9-0.4h0v0.3H225V79.3z"/>
	<path class="st1" d="M231.4,80.7c-0.3,0.1-0.6,0.2-0.9,0.2c-0.9,0-1.2-0.6-1.2-1.5v-2.8h-0.5v-1.1h0.5v-0.7l1.6-1.2v1.9h0.6v1.1
		h-0.6V79c0,0.5,0.1,0.6,0.4,0.6c0.1,0,0.2,0,0.2-0.1V80.7z"/>
	<path class="st1" d="M232.1,79.3h1.1c0,0.4,0.2,0.6,0.4,0.6c0.2,0,0.3-0.1,0.3-0.4c0-0.7-2-1-2-2.6c0-0.9,0.5-1.5,1.2-1.5
		c0.4,0,0.7,0.3,0.8,0.4h0v-0.3h1.1v1.4h-1.1c-0.1-0.4-0.2-0.5-0.4-0.5c-0.2,0-0.4,0.1-0.4,0.4c0,0.8,2,0.9,2,2.7
		c0,0.9-0.5,1.5-1.2,1.5c-0.6,0-0.7-0.2-0.9-0.4h0v0.3h-1.1V79.3z"/>
</g>
</svg>
